<svg width="61" height="33" viewBox="0 0 61 33" fill="none" xmlns="http://www.w3.org/2000/svg">
<g clip-path="url(#clip0_967_2410)">
<path d="M6.59647 5.24439C5.99767 6.24348 5.3826 7.23605 4.79682 8.24815C3.87909 9.84278 2.98089 11.4407 2.07618 13.0386C2.02411 13.1297 1.9753 13.2208 1.91997 13.3119C1.71169 13.6634 1.44484 13.927 0.995738 13.7903C0.624742 13.6797 0.442498 13.2598 0.618233 12.7359C0.802384 12.1763 1.04224 11.6367 1.33419 11.125C3.17398 7.90319 5.0257 4.6879 6.88936 1.47911C7.45562 0.502807 8.21713 0.467009 8.7541 1.47911C9.5384 2.9338 10.2544 4.43731 10.9638 5.93757C11.4454 6.97245 11.8522 8.04638 12.2916 9.10405C12.3818 9.29123 12.4579 9.48485 12.5194 9.68332C12.5581 9.78022 12.5771 9.88388 12.5752 9.98821C12.5734 10.0925 12.5507 10.1955 12.5086 10.2909C12.4665 10.3864 12.4057 10.4725 12.3299 10.5442C12.2541 10.6159 12.1647 10.6717 12.067 10.7084C11.6212 10.8614 11.312 10.6108 11.0907 10.0576C10.365 8.29371 9.61325 6.54613 8.8615 4.79529C8.77261 4.64949 8.66901 4.51318 8.55233 4.3885C8.34621 4.81258 8.27902 5.29086 8.36033 5.75532C8.55559 7.79255 8.71505 9.83628 9.0112 11.8572C9.39773 14.47 10.0666 17.0332 11.0061 19.5017C12.8774 24.3442 16.0959 27.9793 20.8928 30.0718C22.4679 30.7756 24.1671 31.1594 25.8917 31.2007C27.6164 31.2421 29.332 30.9402 30.939 30.3126C31.1993 30.215 31.4532 30.1044 31.7038 29.9872C31.8197 29.9017 31.9285 29.807 32.0292 29.7041C31.7526 29.4698 31.502 29.2582 31.2482 29.0532C28.6972 27.0149 27.0134 24.0857 26.5359 20.8555C25.9338 16.9796 27.1379 13.7057 30.2751 11.2812C31.313 10.4482 32.584 9.95787 33.9125 9.878C35.241 9.79814 36.5615 10.1327 37.6918 10.8354C38.6931 11.4791 39.5052 12.3777 40.0447 13.4388C41.9484 16.9503 41.7564 20.504 40.1455 24.0448C39.217 25.9998 37.8453 27.7113 36.1394 29.0434C35.9539 29.1964 35.7749 29.3689 35.6025 29.5283C35.5569 29.5706 35.5569 29.6552 35.5081 29.8082C35.9279 29.9449 36.3445 30.1011 36.774 30.2117C39.4188 30.8948 42.2144 30.6936 44.7342 29.639C47.1419 28.6414 49.3719 27.2599 51.3372 25.5483C54.9626 22.5054 57.5758 18.7857 58.8678 14.1906C59.1932 13.0841 59.4601 11.9776 59.3136 10.8093C59.2616 10.3895 59.3722 10.038 59.8246 9.91763C59.9292 9.9028 60.0358 9.91111 60.1369 9.94198C60.238 9.97284 60.3311 10.0255 60.4096 10.0963C60.4881 10.167 60.5502 10.2541 60.5913 10.3515C60.6325 10.4488 60.6518 10.554 60.6479 10.6596C60.7202 11.4512 60.6995 12.2485 60.5861 13.0353C60.0132 16.4038 58.6318 19.583 56.5605 22.3004C54.0847 25.5366 50.94 28.2007 47.3409 30.1109C44.3957 31.7022 41.2683 32.5061 37.9033 31.9789C36.7141 31.7514 35.5461 31.4248 34.4114 31.0025C34.2128 30.9094 33.9961 30.861 33.7768 30.861C33.5574 30.861 33.3408 30.9094 33.1422 31.0025C26.9589 33.9933 21.215 33.017 15.9299 28.8449C12.8527 26.424 10.5655 23.1421 9.35941 19.4171C7.84681 15.0104 6.99256 10.4048 6.82427 5.74882C6.82427 5.61213 6.82427 5.47545 6.85031 5.33877L6.59647 5.24439ZM32.0032 27.6994C32.3839 27.989 32.654 28.2103 32.9372 28.4088C33.6531 28.9068 33.7019 28.9035 34.3951 28.4088C35.7243 27.4676 36.8832 26.3065 37.8219 24.9755C39.1112 23.1917 39.8212 21.0548 39.8559 18.8541C39.9478 16.8955 39.3629 14.965 38.1994 13.3868C36.8131 11.5481 34.688 10.9232 32.5499 11.7596C31.9384 12.0085 31.3688 12.3499 30.8609 12.7717C29.8689 13.5707 29.0845 14.5974 28.5746 15.7646C28.0646 16.9318 27.8442 18.2049 27.932 19.4757C28.0817 22.8602 29.6373 25.5613 32.0032 27.7124V27.6994Z" fill="#574FC1"/>
</g>
<defs>
<clipPath id="clip0_967_2410">
<rect width="60.1371" height="32" fill="white" transform="translate(0.550781 0.730469)"/>
</clipPath>
</defs>
</svg>
