<svg xmlns="http://www.w3.org/2000/svg" width="1806" height="818" fill="none">
  <g filter="url(#a)" style="mix-blend-mode:screen">
    <path stroke="url(#b)" stroke-linecap="round" stroke-linejoin="round" stroke-width="12" d="M127 691c96.7-209 183-383.5 282.6-397.5 99.7-14 140.5 116.5 209.2 116.5 68.8 0 102-60 124.2-116.5C765 237 809.4 126 892.7 126c83.4 0 124.1 118 145.1 167.5s77 152.5 155 152.5c78.1 0 101.4-57.8 175.4-50.5 74 7.3 100.3 96 177.2 96 77 0 63-68 134.6-68"/>
  </g>
  <defs>
    <linearGradient id="b" x1="127" x2="1680" y1="691" y2="691" gradientUnits="userSpaceOnUse">
      <stop stop-color="#C3C"/>
      <stop offset=".7" stop-color="#F79F1F"/>
    </linearGradient>
    <filter id="a" width="1805" height="817" x="1" y="0" color-interpolation-filters="sRGB" filterUnits="userSpaceOnUse">
      <feFlood flood-opacity="0" result="BackgroundImageFix"/>
      <feBlend in="SourceGraphic" in2="BackgroundImageFix" result="shape"/>
      <feGaussianBlur result="effect1_foregroundBlur_736_1401" stdDeviation="60"/>
    </filter>
  </defs>
</svg>