<?xml version="1.0" encoding="UTF-8"?>
<svg fill="none" viewBox="0 0 94 88" xmlns="http://www.w3.org/2000/svg">
<g clip-path="url(#a)">
<path d="M91.692 0 51.414 29.802l7.49-17.563L91.692 0z" fill="#E17726"/>
<path d="m2.27.035 32.7 12.206 7.111 17.794L2.27.035zM75.482 63.383l17.802.339-6.222 21.135-21.722-5.98 10.142-15.494zM18.382 63.383l10.105 15.493L6.8 84.857.617 63.722l17.765-.34z" fill="#E27625"/>
<path d="M41.116 25.504 41.844 49l-21.77-.99 6.192-9.342.079-.09 14.77-13.075zM52.525 25.238l14.997 13.338.077.09 6.193 9.342-21.765.99.498-23.76zM29.124 63.45l11.887 9.26-13.808 6.667 1.921-15.928zM64.743 63.45l1.882 15.929-13.77-6.667 11.888-9.263z" fill="#E27625"/>
<path d="m53.16 71.84 13.973 6.766-12.998 6.177 0.135-4.083-1.11-8.86zm-12.458 0-1.066 8.79 0.087 4.145-13.028-6.172 14.007-6.763z" fill="#D5BFB2"/>
<path d="m36.67 52.066 3.652 7.674-12.431-3.642 8.78-4.032zm20.527 0 8.822 4.031-12.472 3.641 3.65-7.672z" fill="#233447"/>
<path d="m30.076 63.371-2.01 16.515-10.77-16.154 12.78-0.36zm33.717 0 12.78 0.361-10.81 16.154-1.97-16.515zm10.316-16.297-9.301 9.479-7.17-3.277-3.434 7.217-2.25-12.41 22.155-1.009zm-54.355 0 22.16 1.008-2.252 12.412-3.434-7.217-7.133 3.276-9.341-9.479z" fill="#CC6228"/>
<path d="m19.129 45.129 10.523 10.678.364 10.54L19.13 45.13zM74.75 45.11 63.845 66.365l.41-10.56L74.751 45.11zM41.4 45.781l.424 2.666 1.046 6.64-.672 20.397-3.181-16.385-.001-.17L41.4 45.782zM52.462 45.742l2.39 13.186v.169l-3.19 16.425-.125-4.108-.498-16.45 1.423-9.222z" fill="#E27525"/>
<path d="m65.189 55.383-0.356 9.158-11.1 8.65-2.245-1.586 2.516-12.957 11.185-3.265zm-36.474 0 11.146 3.265 2.516 12.956-2.244 1.586-11.101-8.65-0.317-9.157z" fill="#F5841F"/>
<path d="m24.574 76.582 14.202 6.73-.06-2.874 1.188-1.043H53.96l1.231 1.04-.09 2.87L69.211 76.6l-6.867 5.674-8.303 5.704H39.79l-8.298-5.727-6.918-5.668z" fill="#C0AC9D"/>
<path d="m52.141 70.941 2.008 1.419 1.177 9.388-1.703-1.438H40.249l-1.67 1.467 1.137-9.416 2.009-1.42H52.14z" fill="#161616"/>
<path d="m89.033.824 4.835 14.505-3.02 14.665 2.15 1.659-2.909 2.22 2.187 1.688-2.896 2.637 1.778 1.287-4.718 5.51-19.349-5.634-.167-.09L52.98 27.51 89.034.824zM4.835.824 40.888 27.51 26.944 39.271l-.167.09-19.35 5.634-4.717-5.51L4.486 38.2 1.592 35.56l2.183-1.687-2.953-2.226 2.231-1.66L0 15.33 4.835.824z" fill="#763E1A"/>
<path d="m66.143 38.129 20.501 5.969 6.66 20.528H75.734l-12.108.153 8.805-17.163-6.287-9.487zM27.723 38.129l-6.289 9.487 8.806 17.163-12.101-.153H.598L7.22 44.098l20.502-5.97zM59.906 12.14 54.17 27.629 52.954 48.55l-.465 6.558-.037 16.752H41.41l-.036-16.72-.467-6.595-1.218-20.917-5.733-15.487h25.949z" fill="#F5841F"/>
</g>
<defs>
<clipPath id="a">
<path d="M0 0h93.867v88H0z" fill="#fff"/>
</clipPath>
</defs>
</svg>
