<?xml version="1.0" encoding="UTF-8"?>
<svg fill="none" viewBox="0 0 88 88" xmlns="http://www.w3.org/2000/svg">
<path d="M44 0c24.303 0 44 19.697 44 44S68.303 88 44 88 0 68.303 0 44 19.697 0 44 0z" clip-rule="evenodd" fill="url(#a)" fill-rule="evenodd"/>
<path d="M27.965 33.98c8.851-8.645 23.22-8.645 32.072 0l1.065 1.049a1.08 1.08 0 0 1 0 1.564L57.46 40.15a.57.57 0 0 1-.808 0l-1.461-1.426c-6.188-6.033-16.19-6.033-22.378 0l-1.564 1.53a.57.57 0 0 1-.808 0l-3.644-3.558a1.08 1.08 0 0 1 0-1.564l1.169-1.152zm39.617 7.356 3.249 3.163a1.08 1.08 0 0 1 0 1.564L56.203 60.346c-.447.43-1.169.43-1.599 0l-10.38-10.14a.291.291 0 0 0-.396 0l-10.381 10.14c-.447.43-1.17.43-1.599 0L17.171 46.063a1.08 1.08 0 0 1 0-1.564l3.248-3.163c.447-.43 1.17-.43 1.599 0l10.381 10.141a.291.291 0 0 0 .395 0l10.382-10.14c.447-.43 1.168-.43 1.598 0l10.382 10.14a.291.291 0 0 0 .395 0l10.381-10.14c.481-.43 1.203-.43 1.65 0z" fill="#fff"/>
<defs>
<radialGradient id="a" cx="0" cy="0" r="1" gradientTransform="matrix(88 0 0 88 0 44.001)" gradientUnits="userSpaceOnUse">
<stop stop-color="#5D9DF6" offset="0"/>
<stop stop-color="#006FFF" offset="1"/>
</radialGradient>
</defs>
</svg>
