<svg width="32" height="32" viewBox="0 0 32 32" fill="none" xmlns="http://www.w3.org/2000/svg">
<path d="M26.6667 12H14.6667C13.1939 12 12 13.1939 12 14.6667V26.6667C12 28.1394 13.1939 29.3333 14.6667 29.3333H26.6667C28.1394 29.3333 29.3333 28.1394 29.3333 26.6667V14.6667C29.3333 13.1939 28.1394 12 26.6667 12Z" stroke="#F79F1F" stroke-width="2" stroke-linecap="round" stroke-linejoin="round"/>
<path d="M6.66602 20.0003H5.33268C4.62544 20.0003 3.94716 19.7194 3.44706 19.2193C2.94697 18.7192 2.66602 18.0409 2.66602 17.3337V5.33366C2.66602 4.62641 2.94697 3.94814 3.44706 3.44804C3.94716 2.94794 4.62544 2.66699 5.33268 2.66699H17.3327C18.0399 2.66699 18.7182 2.94794 19.2183 3.44804C19.7184 3.94814 19.9993 4.62641 19.9993 5.33366V6.66699" stroke="#F79F1F" stroke-width="2" stroke-linecap="round" stroke-linejoin="round"/>
</svg>
