<svg width="48" height="48" viewBox="0 0 48 48" fill="none" xmlns="http://www.w3.org/2000/svg">
<path d="M39.3898 9.83774C39.3776 9.81399 39.3572 9.79538 39.3325 9.78525C36.4733 8.47339 33.456 7.53794 30.3561 7.00229C30.3279 6.99706 30.2988 7.00084 30.2729 7.01309C30.247 7.02534 30.2256 7.04545 30.2118 7.07054C29.801 7.81626 29.428 8.58224 29.0943 9.36555C25.7528 8.85831 22.3539 8.85831 19.0124 9.36555C18.6765 8.58025 18.2976 7.81408 17.8773 7.07054C17.8628 7.04599 17.8414 7.02635 17.8156 7.01418C17.7899 7.002 17.7611 6.99786 17.733 7.00229C14.6327 7.53681 11.6152 8.47234 8.75636 9.78532C8.73189 9.7957 8.71124 9.81341 8.69726 9.83602C2.98009 18.3739 1.41394 26.7018 2.18224 34.9266C2.1844 34.9468 2.19059 34.9663 2.20045 34.984C2.21031 35.0017 2.22363 35.0173 2.23961 35.0297C5.56867 37.4946 9.29226 39.3761 13.2515 40.5939C13.2794 40.6023 13.3091 40.6019 13.3368 40.5928C13.3645 40.5838 13.3887 40.5664 13.4062 40.5432C14.2566 39.3862 15.01 38.161 15.659 36.88C15.6679 36.8625 15.673 36.8432 15.6739 36.8235C15.6749 36.8038 15.6716 36.7842 15.6644 36.7658C15.6572 36.7475 15.6461 36.7309 15.632 36.7171C15.6179 36.7034 15.6011 36.6927 15.5826 36.6859C14.3944 36.2313 13.2441 35.6833 12.1425 35.047C12.1225 35.0352 12.1056 35.0187 12.0935 34.9989C12.0814 34.9791 12.0744 34.9566 12.073 34.9334C12.0716 34.9103 12.076 34.8871 12.0857 34.866C12.0954 34.8449 12.1101 34.8266 12.1286 34.8125C12.3597 34.6393 12.591 34.4592 12.8118 34.2772C12.8314 34.2611 12.8551 34.2507 12.8803 34.2473C12.9055 34.244 12.9311 34.2477 12.9543 34.258C20.1714 37.5518 27.985 37.5518 35.1168 34.258C35.14 34.247 35.1659 34.2428 35.1914 34.2459C35.217 34.249 35.2411 34.2592 35.2611 34.2755C35.4819 34.4575 35.7131 34.6393 35.946 34.8125C35.9646 34.8264 35.9794 34.8447 35.9893 34.8657C35.9991 34.8867 36.0037 34.9098 36.0024 34.933C36.0012 34.9562 35.9944 34.9787 35.9824 34.9986C35.9704 35.0184 35.9537 35.0351 35.9338 35.047C34.8347 35.6886 33.6834 36.2363 32.4921 36.6842C32.4736 36.6913 32.4568 36.7021 32.4428 36.7161C32.4287 36.7301 32.4178 36.7469 32.4108 36.7654C32.4037 36.7838 32.4006 36.8036 32.4017 36.8234C32.4028 36.8431 32.408 36.8625 32.4171 36.88C33.0769 38.1538 33.8292 39.3775 34.6681 40.5412C34.6851 40.565 34.7092 40.583 34.737 40.5924C34.7648 40.6018 34.7948 40.6023 34.8228 40.5937C38.7892 39.38 42.5193 37.4984 45.8525 35.0297C45.8687 35.0179 45.8822 35.0027 45.8921 34.9852C45.902 34.9677 45.9081 34.9483 45.9099 34.9283C46.8297 25.4196 44.37 17.1599 39.3898 9.83774ZM16.7368 29.9185C14.5639 29.9185 12.7735 27.9245 12.7735 25.4756C12.7735 23.0267 14.5292 21.0325 16.7368 21.0325C18.9617 21.0325 20.7348 23.044 20.7 25.4755C20.7 27.9245 18.9443 29.9185 16.7368 29.9185ZM31.3903 29.9185C29.2175 29.9185 27.4271 27.9245 27.4271 25.4756C27.4271 23.0267 29.1828 21.0325 31.3903 21.0325C33.6153 21.0325 35.3883 23.044 35.3536 25.4755C35.3536 27.9245 33.6153 29.9185 31.3903 29.9185Z" fill="black"/>
</svg>
